<svg width="28" height="28" viewBox="0 0 28 28" fill="none" xmlns="http://www.w3.org/2000/svg">
    <path d="M13.4132 10.9247L16.0306 10.9159C16.6875 10.9218 17.4353 11.4905 17.5327 12.0441L18.0968 16.1467C18.1149 16.317 17.9766 16.5393 18.0373 16.6367C18.2012 16.5089 18.2986 16.3024 18.2683 16.0831L17.794 12.2821C17.6785 11.3698 16.8998 10.6826 15.9816 10.6826H13.5048H13.419L13.4132 10.9247Z" fill="#FFF1B8"/>
    <path d="M13.8746 11.19C13.9341 11.19 16.1099 11.2274 16.1181 11.2857C16.6437 11.2904 17.3326 12.4734 17.4107 12.9161C17.4189 12.9803 17.9276 16.3082 17.9917 16.3C18.0285 16.4336 17.9375 16.6039 18.0017 16.6687C18.1644 16.5421 18.2612 16.3368 18.2309 16.1198L17.7607 12.3497C17.6464 11.4449 16.8741 10.7636 15.9635 10.7636H13.4172V11.0839L13.8746 11.19Z" fill="#FEE89A"/>
    <path d="M14.3768 11.455C14.4958 11.455 16.1886 11.5384 16.2049 11.655C16.5993 11.6585 17.2298 13.4558 17.2882 13.7877C17.3045 13.916 17.7572 16.4687 17.8855 16.4524C17.9409 16.5498 17.8972 16.667 17.9643 16.6997C18.1258 16.5743 18.2215 16.3707 18.1918 16.1555L17.7251 12.4169C17.6113 11.5197 16.8454 10.8436 15.9424 10.8436H13.416V11.3103L14.3768 11.455Z" fill="#FDE07C"/>
    <path d="M14.84 11.7197C15.0185 11.7197 16.229 11.8492 16.2535 12.0242C16.516 12.0265 17.0882 14.438 17.1273 14.6591C17.1518 14.8516 17.549 16.629 17.7415 16.6045C17.815 16.6658 17.8197 16.73 17.8891 16.7305C18.0495 16.6057 18.144 16.4045 18.1143 16.191L17.6523 12.4833C17.5397 11.5931 16.7802 10.9229 15.8842 10.9229H13.4132L13.4173 11.6229L14.84 11.7197Z" fill="#FDD75E"/>
    <path d="M15.3813 11.9853C15.6193 11.9853 16.3467 12.1608 16.3794 12.3942C16.5106 12.3953 17.0245 15.4211 17.0438 15.5319C17.0764 15.7886 17.4177 16.7913 17.6744 16.7587C17.7665 16.7832 17.8184 16.7954 17.8914 16.7633C18.05 16.6397 18.1445 16.4396 18.1148 16.2278L17.6557 12.5511C17.5437 11.6685 16.7906 11.0041 15.9028 11.0041H13.4125L13.4084 11.9374L15.3813 11.9853Z" fill="#FCCF40"/>
    <path d="M14.5862 10.9247L11.9688 10.9159C11.3119 10.9218 10.5641 11.4905 10.4667 12.0441L9.9026 16.1467C9.88451 16.317 10.0228 16.5393 9.96209 16.6367C9.79818 16.5089 9.70076 16.3024 9.73109 16.0831L10.2053 12.2821C10.3208 11.3698 11.0996 10.6826 12.0178 10.6826H14.4946H14.5803L14.5862 10.9247Z" fill="#FFF1B8"/>
    <path d="M14.1242 11.19C14.0647 11.19 11.8889 11.2274 11.8807 11.2857C11.3551 11.2904 10.6662 12.4734 10.588 12.9161C10.5799 12.9803 10.0712 16.3082 10.007 16.3C9.97028 16.4336 10.0613 16.6039 9.99711 16.6687C9.83436 16.5421 9.73753 16.3368 9.76786 16.1198L10.238 12.3497C10.3524 11.4449 11.1247 10.7636 12.0353 10.7636H14.5815V11.0839L14.1242 11.19Z" fill="#FEE89A"/>
    <path d="M13.622 11.455C13.503 11.455 11.8102 11.5384 11.7939 11.655C11.3995 11.6585 10.7689 13.4558 10.7106 13.7877C10.6943 13.916 10.2416 16.4687 10.1133 16.4524C10.0579 16.5498 10.1016 16.667 10.0345 16.6997C9.87295 16.5743 9.77728 16.3707 9.80703 16.1555L10.2737 12.4169C10.3874 11.5197 11.1534 10.8436 12.0564 10.8436H14.5828V11.3103L13.622 11.455Z" fill="#FDE07C"/>
    <path d="M13.1588 11.7197C12.9803 11.7197 11.7699 11.8492 11.7454 12.0242C11.4829 12.0265 10.9107 14.438 10.8716 14.6591C10.8471 14.8516 10.4498 16.629 10.2573 16.6045C10.1838 16.6658 10.1792 16.73 10.1098 16.7305C9.94935 16.6057 9.85485 16.4045 9.8846 16.191L10.3472 12.4833C10.4598 11.5931 11.2193 10.9229 12.1153 10.9229H14.5863L14.5822 11.6229L13.1588 11.7197Z" fill="#FDD75E"/>
    <path d="M12.6175 11.9853C12.3795 11.9853 11.6521 12.1608 11.6194 12.3942C11.4882 12.3953 10.9742 15.4211 10.955 15.5319C10.9223 15.7886 10.5811 16.7913 10.3244 16.7587C10.2322 16.7832 10.1803 16.7954 10.1074 16.7633C9.94874 16.6397 9.85424 16.4396 9.88399 16.2278L10.3431 12.5511C10.4551 11.6685 11.2082 11.0041 12.096 11.0041H14.5862L14.5903 11.9374L12.6175 11.9853Z" fill="#FCCF40"/>
    <path d="M13.416 12.25H14.6498H15.8835C16.181 12.25 16.426 12.4717 16.4668 12.7633L16.6943 14.5833L16.9218 16.4033C16.9627 16.7242 17.2485 16.9517 17.5693 16.9108C17.6802 16.8992 17.7793 16.8583 17.8552 16.7942C18.0127 16.6717 18.106 16.4733 18.0768 16.2633L17.8493 14.4404L17.6218 12.6175C17.511 11.7425 16.7643 11.0833 15.8835 11.0833H14.6498H13.416V12.25Z" fill="#FBC622"/>
    <path d="M17.5005 12.6245C17.3909 11.7577 16.6477 11.193 15.7762 11.1936C15.768 11.1936 15.5884 11.1936 15.5802 11.1936H14.5769H13.727L13.4166 11.235V11.3359L13.5362 12.25H14.025H14.7326H15.4921C15.5108 12.25 15.9191 12.2559 15.9325 12.2664C16.1268 12.2798 16.2942 12.3906 16.3875 12.5528C16.4278 12.6146 16.4587 12.7155 16.4698 12.7925L16.6915 14.5659L16.7084 14.6989L16.9125 16.3339C16.9353 16.5124 17.0555 16.7265 17.206 16.7965C17.2905 16.8601 17.3839 16.8794 17.4889 16.8659C17.5904 16.8531 17.6866 16.8134 17.7712 16.7563C17.9095 16.6507 17.9882 16.4564 17.959 16.2377C17.9532 16.1846 17.7479 14.5419 17.7362 14.462C17.7175 14.3244 17.5005 12.6245 17.5005 12.6245Z" fill="url(#paint0_radial)"/>
    <path d="M17.3792 12.6309C17.2707 11.7723 16.531 11.3027 15.6694 11.3039C15.6531 11.3039 15.4938 11.3039 15.4775 11.3039H14.5039H13.675L13.416 11.3867V11.4882L13.6563 12.25H14.1288H14.8154H15.5574C15.5948 12.25 15.9547 12.2623 15.9827 12.2827C16.1653 12.3089 16.3198 12.4256 16.4015 12.5884C16.4353 12.6397 16.4651 12.7587 16.4744 12.8229L16.6903 14.5489L16.7066 14.6802L16.9049 16.2657C16.9236 16.4144 17.0338 16.6734 17.1593 16.7318C17.2333 16.8152 17.3127 16.8356 17.4101 16.8222C17.5023 16.8094 17.595 16.7697 17.6889 16.7189C17.8079 16.6309 17.8721 16.4401 17.8435 16.2126C17.8324 16.1059 17.6481 14.644 17.6253 14.4848C17.5851 14.2083 17.3792 12.6309 17.3792 12.6309Z" fill="url(#paint1_radial)"/>
    <path d="M17.2579 12.638C17.15 11.7875 16.4144 11.4124 15.5621 11.4141C15.5376 11.4141 15.3988 11.4141 15.3743 11.4141H14.431H13.6237L13.4166 11.5384V11.6405L13.7771 12.25H14.2333H14.8989H15.6228C15.6782 12.25 15.9909 12.2681 16.0323 12.299C16.2038 12.3387 16.3444 12.46 16.4144 12.6234C16.4412 12.6648 16.4704 12.8007 16.478 12.852L16.688 14.5315L16.7043 14.661L16.8962 16.1963C16.9114 16.3153 17.0117 16.6192 17.112 16.6659C17.1762 16.7691 17.2404 16.7913 17.3308 16.7767C17.4136 16.7639 17.5035 16.7248 17.6061 16.6805C17.7059 16.6093 17.7555 16.422 17.7269 16.1864C17.71 16.0265 17.5478 14.7455 17.5128 14.5058C17.4533 14.0922 17.2579 12.638 17.2579 12.638Z" fill="url(#paint2_radial)"/>
    <path d="M17.1366 12.645C17.0298 11.8026 16.2972 11.5226 15.4554 11.5244C15.4227 11.5244 15.3043 11.525 15.2717 11.525H14.3582H13.5724L13.4172 11.6906V11.7933L13.8973 12.2501H14.3377H14.9817H15.6882C15.7622 12.2501 16.0265 12.274 16.0819 12.3154C16.2417 12.3685 16.3695 12.4951 16.4278 12.6584C16.4482 12.6893 16.4762 12.8433 16.4821 12.8818L16.6862 14.5146L16.702 14.6417L16.8875 16.1275C16.8986 16.2167 16.989 16.5656 17.0642 16.6006C17.1179 16.7236 17.1681 16.747 17.2509 16.7324C17.3244 16.7196 17.4107 16.6805 17.5227 16.6431C17.6038 16.5895 17.6388 16.4057 17.6102 16.1613C17.5881 15.9484 17.4469 14.8476 17.4008 14.528C17.3215 13.9761 17.1366 12.645 17.1366 12.645Z" fill="url(#paint3_radial)"/>
    <path d="M17.0147 12.652C16.9091 11.8178 16.1799 11.6323 15.3475 11.6352C15.3067 11.6352 15.2087 11.6358 15.1679 11.6358H14.2841H13.5194L13.4155 11.8429V11.9461L14.0175 12.2501H14.4416H15.0646H15.7529C15.8457 12.2501 16.0615 12.2804 16.1315 12.3317C16.2797 12.3982 16.394 12.5295 16.4407 12.6934C16.4541 12.7138 16.4815 12.8853 16.485 12.911L16.6834 14.4965L16.6991 14.6219L16.8788 16.0581C16.8864 16.1176 16.9669 16.5113 17.017 16.5346C17.0608 16.6776 17.0964 16.7026 17.1716 16.6875C17.2358 16.6746 17.3192 16.6356 17.4399 16.6046C17.5018 16.5679 17.5222 16.3882 17.4936 16.1351C17.4656 15.8691 17.3466 14.9486 17.2889 14.5496C17.1891 13.8606 17.0147 12.652 17.0147 12.652Z" fill="url(#paint4_radial)"/>
    <path d="M16.8933 12.6583C16.7889 11.8323 16.0632 11.7413 15.2407 11.7448C15.1917 11.7448 15.1141 11.7454 15.0651 11.7454H14.2117H13.4685L13.4166 11.9939V12.0978L14.1376 12.25H14.546H15.148H15.8188C15.9302 12.25 16.0982 12.2862 16.1816 12.348C16.3187 12.4273 16.4196 12.5644 16.454 12.7283C16.461 12.7388 16.4873 12.9278 16.489 12.9407L16.6815 14.4795L16.6967 14.6026L16.87 15.9886C16.8735 16.0183 16.944 16.457 16.9691 16.4687C17.0024 16.6308 17.0234 16.6583 17.0916 16.6425C17.1465 16.6297 17.227 16.5912 17.3565 16.5667C17.399 16.5468 17.4049 16.3713 17.3763 16.1088C17.343 15.7891 17.245 15.0494 17.1762 14.5705C17.0572 13.7445 16.8933 12.6583 16.8933 12.6583Z" fill="url(#paint5_radial)"/>
    <path d="M13.416 12.2499H14.6498H15.8835C16.181 12.2499 16.426 12.4716 16.4668 12.7633L16.6943 14.5833L16.9218 16.4033C16.9627 16.7241 16.9528 16.5695 17.2736 16.5287C17.329 16.5228 17.2036 15.5568 17.0642 14.5926C16.9248 13.6283 16.7719 12.6653 16.7719 12.6653C16.6611 11.7903 15.8427 11.8556 14.9618 11.8556H13.416V12.2499Z" fill="url(#paint6_radial)"/>
    <path d="M14.578 12.25H13.3443H12.1105C11.813 12.25 11.568 12.4717 11.5272 12.7633L11.2997 14.5833L11.0722 16.4033C11.0313 16.7242 10.7455 16.9517 10.4247 16.9108C10.3138 16.8992 10.2147 16.8583 10.1388 16.7942C9.98134 16.6717 9.88801 16.4733 9.91718 16.2633L10.1447 14.4404L10.3722 12.6175C10.483 11.7425 11.2297 11.0833 12.1105 11.0833H13.3443H14.578V12.25Z" fill="#FBC622"/>
    <path d="M10.4936 12.6245C10.6033 11.7577 11.3464 11.193 12.2179 11.1936C12.2261 11.1936 12.4058 11.1936 12.4139 11.1936H13.4173H14.5763L14.5775 11.235V11.3359L14.4579 12.25H13.9691H13.2615H12.502C12.4833 12.25 12.075 12.2559 12.0616 12.2664C11.8673 12.2798 11.6999 12.3906 11.6066 12.5528C11.5663 12.6146 11.5354 12.7155 11.5243 12.7925L11.3027 14.5659L11.2858 14.6989L11.0816 16.3339C11.0588 16.5124 10.9387 16.7265 10.7882 16.7965C10.7036 16.8601 10.6103 16.8794 10.5053 16.8659C10.4038 16.8531 10.3075 16.8134 10.2229 16.7563C10.0847 16.6507 10.0059 16.4564 10.0351 16.2377C10.0409 16.1846 10.2463 14.5419 10.2579 14.462C10.2772 14.3244 10.4936 12.6245 10.4936 12.6245Z" fill="url(#paint7_radial)"/>
    <path d="M10.6155 12.6309C10.724 11.7723 11.4636 11.3027 12.3252 11.3039C12.3416 11.3039 12.5008 11.3039 12.5171 11.3039H13.4907H14.5827L14.5781 11.3867V11.4882L14.3377 12.25H13.8652H13.1786H12.4366C12.3993 12.25 12.0394 12.2623 12.0114 12.2827C11.8288 12.3089 11.6742 12.4256 11.5926 12.5884C11.5587 12.6397 11.529 12.7587 11.5196 12.8229L11.3038 14.5489L11.2875 14.6802L11.0891 16.2657C11.0705 16.4144 10.9602 16.6734 10.8348 16.7318C10.7607 16.8152 10.6814 16.8356 10.584 16.8222C10.4918 16.8094 10.3991 16.7697 10.3051 16.7189C10.1861 16.6309 10.122 16.4401 10.1506 16.2126C10.1616 16.1059 10.346 14.644 10.3687 14.4848C10.409 14.2083 10.6155 12.6309 10.6155 12.6309Z" fill="url(#paint8_radial)"/>
    <path d="M10.7369 12.638C10.8448 11.7875 11.5804 11.4124 12.4327 11.4141C12.4572 11.4141 12.596 11.4141 12.6205 11.4141H13.5637H14.5782V11.5384V11.6405L14.2177 12.25H13.7609H13.0959H12.372C12.3166 12.25 12.0039 12.2681 11.9625 12.299C11.791 12.3387 11.6504 12.46 11.5804 12.6234C11.5536 12.6648 11.5244 12.8007 11.5168 12.852L11.3068 14.5315L11.2905 14.661L11.0986 16.1963C11.0834 16.3153 10.9831 16.6192 10.8827 16.6659C10.8186 16.7691 10.7544 16.7913 10.664 16.7767C10.5812 16.7639 10.4913 16.7248 10.3887 16.6805C10.2889 16.6093 10.2393 16.422 10.2679 16.1864C10.2848 16.0265 10.447 14.7455 10.482 14.5058C10.5409 14.0922 10.7369 12.638 10.7369 12.638Z" fill="url(#paint9_radial)"/>
    <path d="M10.8581 12.645C10.9649 11.8026 11.6976 11.5226 12.5393 11.5244C12.572 11.5244 12.6904 11.525 12.7231 11.525H13.6366H14.5781V11.6906V11.7933L14.0974 12.2501H13.657H13.013H12.3066C12.2325 12.2501 11.9682 12.274 11.9128 12.3154C11.753 12.3685 11.6252 12.4951 11.5669 12.6584C11.5465 12.6893 11.5185 12.8433 11.5126 12.8818L11.3085 14.5146L11.2927 14.6417L11.1072 16.1275C11.0961 16.2167 11.0057 16.5656 10.9305 16.6006C10.8768 16.7236 10.8266 16.747 10.7438 16.7324C10.6703 16.7196 10.584 16.6805 10.472 16.6431C10.3909 16.5895 10.3559 16.4057 10.3845 16.1613C10.4066 15.9484 10.5478 14.8476 10.5939 14.528C10.6732 13.9761 10.8581 12.645 10.8581 12.645Z" fill="url(#paint10_radial)"/>
    <path d="M10.9796 12.652C11.0851 11.8178 11.8143 11.6323 12.6467 11.6352C12.6876 11.6352 12.7856 11.6358 12.8264 11.6358H13.7101H14.5781V11.8429V11.9461L13.9773 12.2501H13.5532H12.9302H12.2419C12.1491 12.2501 11.9333 12.2804 11.8633 12.3317C11.7151 12.3982 11.6008 12.5295 11.5541 12.6934C11.5407 12.7138 11.5133 12.8853 11.5098 12.911L11.3115 14.4965L11.2957 14.6219L11.1161 16.0581C11.1085 16.1176 11.028 16.5113 10.9778 16.5346C10.9341 16.6776 10.8985 16.7026 10.8232 16.6875C10.7591 16.6746 10.6756 16.6356 10.5549 16.6046C10.4931 16.5679 10.4726 16.3882 10.5012 16.1351C10.5292 15.8691 10.6482 14.9486 10.706 14.5496C10.8051 13.8606 10.9796 12.652 10.9796 12.652Z" fill="url(#paint11_radial)"/>
    <path d="M11.1007 12.6583C11.2052 11.8323 11.9308 11.7413 12.7533 11.7448C12.8023 11.7448 12.8799 11.7454 12.9289 11.7454H13.7823H14.5774V11.9939V12.0978L13.857 12.25H13.4487H12.8467H12.1758C12.0644 12.25 11.8964 12.2862 11.813 12.348C11.6759 12.4273 11.575 12.5644 11.5406 12.7283C11.5336 12.7388 11.5073 12.9278 11.5056 12.9407L11.3131 14.4795L11.2979 14.6026L11.1241 15.9892C11.1206 16.0189 11.05 16.4576 11.0249 16.4693C10.9917 16.6314 10.9707 16.6588 10.9024 16.6431C10.8476 16.6303 10.7671 16.5918 10.6376 16.5673C10.595 16.5474 10.5892 16.3718 10.6177 16.1093C10.651 15.7897 10.749 15.05 10.8178 14.5711C10.9374 13.7445 11.1007 12.6583 11.1007 12.6583Z" fill="url(#paint12_radial)"/>
    <path d="M14.5781 12.2499H13.3444H12.1106C11.8131 12.2499 11.5681 12.4716 11.5273 12.7633L11.2998 14.5833L11.0723 16.4033C11.0315 16.7241 11.0414 16.5695 10.7206 16.5287C10.6651 16.5228 10.7906 15.5568 10.93 14.5926C11.0694 13.6283 11.2222 12.6653 11.2222 12.6653C11.3331 11.7903 12.1515 11.8556 13.0323 11.8556H14.5781V12.2499Z" fill="url(#paint13_radial)"/>
    <path d="M14 26.25C17.5439 26.25 20.4167 23.3772 20.4167 19.8333C20.4167 16.2895 17.5439 13.4167 14 13.4167C10.4562 13.4167 7.58337 16.2895 7.58337 19.8333C7.58337 23.3772 10.4562 26.25 14 26.25Z" fill="url(#paint14_linear)"/>
    <path d="M14 25.1341C16.9275 25.1341 19.3007 22.7608 19.3007 19.8333C19.3007 16.9058 16.9275 14.5326 14 14.5326C11.0724 14.5326 8.69922 16.9058 8.69922 19.8333C8.69922 22.7608 11.0724 25.1341 14 25.1341Z" fill="url(#paint15_linear)"/>
    <path d="M13.9999 24.5758C16.6192 24.5758 18.7424 22.4525 18.7424 19.8333C18.7424 17.2141 16.6192 15.0908 13.9999 15.0908C11.3807 15.0908 9.25745 17.2141 9.25745 19.8333C9.25745 22.4525 11.3807 24.5758 13.9999 24.5758Z" fill="url(#paint16_linear)"/>
    <path d="M7.35583 1.75L12.8625 9.45583C13.0725 9.75333 13.1892 10.1092 13.1892 10.4708V11.6667H14.9619V10.4708C14.9619 10.1092 14.8453 9.75333 14.6353 9.45583L9.12858 1.75H7.35583Z" fill="url(#paint17_linear)"/>
    <path d="M5.83337 1.75L11.34 9.45583C11.55 9.75333 11.6667 10.1092 11.6667 10.4708V11.6667H13.2417V10.4708C13.2417 10.1092 13.125 9.75333 12.915 9.45583L7.40837 1.75H5.83337Z" fill="url(#paint18_linear)"/>
    <path d="M9.03589 1.75L14.5426 9.45583C14.7526 9.75333 14.8692 10.1092 14.8692 10.4708V11.6667H16.3334V10.4533C16.3334 10.0858 16.2167 9.73 16.0067 9.4325L10.5001 1.75H9.03589Z" fill="url(#paint19_linear)"/>
    <path d="M20.6442 1.75L15.1375 9.45583C14.9275 9.75333 14.8108 10.1092 14.8108 10.4708V11.6667H13.0381V10.4708C13.0381 10.1092 13.1548 9.75333 13.3648 9.45583L18.8714 1.75H20.6442Z" fill="url(#paint20_linear)"/>
    <path d="M22.1666 1.75L20.4983 4.08333L18.4158 7L17.5816 8.16667L16.66 9.45583C16.45 9.75333 16.3333 10.1092 16.3333 10.4708V11.6667H14.7583V10.4708C14.7583 10.1092 14.875 9.75333 15.085 9.45583L16.0066 8.16667L16.8408 7L18.9233 4.08333L20.5916 1.75H22.1666Z" fill="url(#paint21_linear)"/>
    <path d="M18.9641 1.75L17.2958 4.08333L15.2133 7L14.3791 8.16667L13.4575 9.45583C13.2475 9.75333 13.1308 10.1092 13.1308 10.4708V11.6667H11.6666V10.4533C11.6666 10.0858 11.7833 9.73 11.9933 9.4325L12.9033 8.16667L13.7375 7L15.8258 4.08333L16.6658 2.91667L17.5 1.75H18.9641Z" fill="url(#paint22_linear)"/>
    <path d="M13.2416 10.5V12.8333H12.25C11.9291 12.8333 11.6666 12.5708 11.6666 12.25V11.0833C11.6666 10.7625 11.9291 10.5 12.25 10.5H13.2416Z" fill="url(#paint23_linear)"/>
    <path d="M14.8109 10.5H13.1309V12.8333H14.8109V10.5Z" fill="url(#paint24_linear)"/>
    <path d="M16.3333 11.0833V12.25C16.3333 12.5708 16.0708 12.8333 15.75 12.8333H14.7583V10.5H15.75C16.0708 10.5 16.3333 10.7625 16.3333 11.0833Z" fill="url(#paint25_linear)"/>
    <path opacity="0.6" d="M21.3325 2.91666L20.4983 4.08332L18.4158 6.99999L17.5817 8.16666H12.9033L13.7375 6.99999L15.8258 4.08332L16.6658 2.91666H21.3325Z" fill="url(#paint26_linear)"/>
    <path d="M15.5679 16.0108H13.3052L11.5132 17.3017V19.7313L13.3052 18.5921V23.6187H15.5679V16.0108Z" fill="url(#paint27_linear)"/>
    <path d="M14 26.25C17.5439 26.25 20.4167 23.3772 20.4167 19.8333C20.4167 16.2895 17.5439 13.4167 14 13.4167C10.4562 13.4167 7.58337 16.2895 7.58337 19.8333C7.58337 23.3772 10.4562 26.25 14 26.25Z" fill="url(#paint28_radial)"/>
    <path d="M14 25.1341C16.9275 25.1341 19.3007 22.7608 19.3007 19.8333C19.3007 16.9058 16.9275 14.5326 14 14.5326C11.0724 14.5326 8.69922 16.9058 8.69922 19.8333C8.69922 22.7608 11.0724 25.1341 14 25.1341Z" fill="url(#paint29_radial)"/>
    <path d="M14 25.1341C16.9275 25.1341 19.3007 22.7608 19.3007 19.8333C19.3007 16.9058 16.9275 14.5326 14 14.5326C11.0724 14.5326 8.69922 16.9058 8.69922 19.8333C8.69922 22.7608 11.0724 25.1341 14 25.1341Z" fill="url(#paint30_radial)"/>
    <defs>
        <radialGradient id="paint0_radial" cx="0" cy="0" r="1" gradientUnits="userSpaceOnUse" gradientTransform="translate(15.6496 14.7077) scale(2.46108 2.56125)">
            <stop stop-color="#F9BF20"/>
            <stop offset="0.856" stop-color="#F9BF20"/>
            <stop offset="0.997" stop-color="#F9BF20"/>
        </radialGradient>
        <radialGradient id="paint1_radial" cx="0" cy="0" r="1" gradientUnits="userSpaceOnUse" gradientTransform="translate(15.593 14.7217) scale(2.39633 2.49386)">
            <stop stop-color="#F8B71E"/>
            <stop offset="0.856" stop-color="#F8B71E"/>
            <stop offset="0.997" stop-color="#F8B71E"/>
        </radialGradient>
        <radialGradient id="paint2_radial" cx="0" cy="0" r="1" gradientUnits="userSpaceOnUse" gradientTransform="translate(15.5359 14.7363) scale(2.33158 2.42648)">
            <stop stop-color="#F6B01C"/>
            <stop offset="0.856" stop-color="#F6B01C"/>
            <stop offset="0.997" stop-color="#F6B01C"/>
        </radialGradient>
        <radialGradient id="paint3_radial" cx="0" cy="0" r="1" gradientUnits="userSpaceOnUse" gradientTransform="translate(15.4799 14.7509) scale(2.26683 2.35909)">
            <stop stop-color="#F5A919"/>
            <stop offset="0.856" stop-color="#F5A919"/>
            <stop offset="0.997" stop-color="#F5A919"/>
        </radialGradient>
        <radialGradient id="paint4_radial" cx="0" cy="0" r="1" gradientUnits="userSpaceOnUse" gradientTransform="translate(15.4239 14.7649) scale(2.20267 2.29232)">
            <stop stop-color="#F3A217"/>
            <stop offset="0.856" stop-color="#F3A217"/>
            <stop offset="0.997" stop-color="#F3A217"/>
        </radialGradient>
        <radialGradient id="paint5_radial" cx="0" cy="0" r="1" gradientUnits="userSpaceOnUse" gradientTransform="translate(15.369 14.7795) scale(2.13908 2.22614)">
            <stop stop-color="#F29A15"/>
            <stop offset="0.856" stop-color="#F29A15"/>
            <stop offset="0.997" stop-color="#F29A15"/>
        </radialGradient>
        <radialGradient id="paint6_radial" cx="0" cy="0" r="1" gradientUnits="userSpaceOnUse" gradientTransform="translate(15.3159 14.7934) scale(2.07725 2.1618)">
            <stop stop-color="#F09313"/>
            <stop offset="0.856" stop-color="#F09313"/>
            <stop offset="0.997" stop-color="#F09313"/>
        </radialGradient>
        <radialGradient id="paint7_radial" cx="0" cy="0" r="1" gradientUnits="userSpaceOnUse" gradientTransform="translate(12.3445 14.7077) rotate(180) scale(2.46108 2.56125)">
            <stop stop-color="#F9BF20"/>
            <stop offset="0.856" stop-color="#F9BF20"/>
            <stop offset="0.997" stop-color="#F9BF20"/>
        </radialGradient>
        <radialGradient id="paint8_radial" cx="0" cy="0" r="1" gradientUnits="userSpaceOnUse" gradientTransform="translate(12.4034 14.7217) rotate(180) scale(2.3975 2.49508)">
            <stop stop-color="#F8B71E"/>
            <stop offset="0.856" stop-color="#F8B71E"/>
            <stop offset="0.997" stop-color="#F8B71E"/>
        </radialGradient>
        <radialGradient id="paint9_radial" cx="0" cy="0" r="1" gradientUnits="userSpaceOnUse" gradientTransform="translate(12.4583 14.7363) rotate(180) scale(2.33158 2.42648)">
            <stop stop-color="#F6B01C"/>
            <stop offset="0.856" stop-color="#F6B01C"/>
            <stop offset="0.997" stop-color="#F6B01C"/>
        </radialGradient>
        <radialGradient id="paint10_radial" cx="0" cy="0" r="1" gradientUnits="userSpaceOnUse" gradientTransform="translate(12.5142 14.7509) rotate(180) scale(2.26683 2.35909)">
            <stop stop-color="#F5A919"/>
            <stop offset="0.856" stop-color="#F5A919"/>
            <stop offset="0.997" stop-color="#F5A919"/>
        </radialGradient>
        <radialGradient id="paint11_radial" cx="0" cy="0" r="1" gradientUnits="userSpaceOnUse" gradientTransform="translate(12.5703 14.7649) rotate(180) scale(2.20267 2.29232)">
            <stop stop-color="#F3A217"/>
            <stop offset="0.856" stop-color="#F3A217"/>
            <stop offset="0.997" stop-color="#F3A217"/>
        </radialGradient>
        <radialGradient id="paint12_radial" cx="0" cy="0" r="1" gradientUnits="userSpaceOnUse" gradientTransform="translate(12.625 14.7795) rotate(180) scale(2.13908 2.22614)">
            <stop stop-color="#F29A15"/>
            <stop offset="0.856" stop-color="#F29A15"/>
            <stop offset="0.997" stop-color="#F29A15"/>
        </radialGradient>
        <radialGradient id="paint13_radial" cx="0" cy="0" r="1" gradientUnits="userSpaceOnUse" gradientTransform="translate(12.6782 14.7934) rotate(180) scale(2.07725 2.1618)">
            <stop stop-color="#F09313"/>
            <stop offset="0.856" stop-color="#F09313"/>
            <stop offset="0.997" stop-color="#F09313"/>
        </radialGradient>
        <linearGradient id="paint14_linear" x1="7.92287" y1="12.7849" x2="18.5471" y2="25.1072" gradientUnits="userSpaceOnUse">
            <stop stop-color="#FFE16E"/>
            <stop offset="0.352" stop-color="#FFD226"/>
            <stop offset="0.453" stop-color="#FDCD23"/>
            <stop offset="0.579" stop-color="#F6BD1B"/>
            <stop offset="0.663" stop-color="#F0AF13"/>
            <stop offset="1" stop-color="#F08D13"/>
        </linearGradient>
        <linearGradient id="paint15_linear" x1="18.6871" y1="24.5204" x2="8.37314" y2="14.2065" gradientUnits="userSpaceOnUse">
            <stop stop-color="#FFE16E"/>
            <stop offset="0.352" stop-color="#FFD226"/>
            <stop offset="0.453" stop-color="#FDCD23"/>
            <stop offset="0.579" stop-color="#F6BD1B"/>
            <stop offset="0.663" stop-color="#F0AF13"/>
            <stop offset="1" stop-color="#F08D13"/>
        </linearGradient>
        <linearGradient id="paint16_linear" x1="9.9487" y1="15.0319" x2="17.9911" y2="24.5635" gradientUnits="userSpaceOnUse">
            <stop stop-color="#FFE787"/>
            <stop offset="0.525" stop-color="#FFE16E"/>
            <stop offset="1" stop-color="#F0BC13"/>
        </linearGradient>
        <linearGradient id="paint17_linear" x1="8.18183" y1="2.37825" x2="12.9663" y2="9.21025" gradientUnits="userSpaceOnUse">
            <stop stop-color="#F9EAE7"/>
            <stop offset="0.616" stop-color="#F0D7D5"/>
            <stop offset="0.69" stop-color="#E0C5C3"/>
            <stop offset="0.896" stop-color="#B89896"/>
            <stop offset="1" stop-color="#A88685"/>
        </linearGradient>
        <linearGradient id="paint18_linear" x1="6.31579" y1="2.26217" x2="11.802" y2="9.83325" gradientUnits="userSpaceOnUse">
            <stop offset="0.614" stop-color="#FE4532"/>
            <stop offset="0.751" stop-color="#E23A2A"/>
            <stop offset="0.907" stop-color="#C83122"/>
            <stop offset="1" stop-color="#BF2D1F"/>
        </linearGradient>
        <linearGradient id="paint19_linear" x1="9.35264" y1="2.15075" x2="13.6314" y2="8.00392" gradientUnits="userSpaceOnUse">
            <stop stop-color="#1D67BB"/>
            <stop offset="0.638" stop-color="#0353AE"/>
            <stop offset="0.746" stop-color="#024898"/>
            <stop offset="0.906" stop-color="#013B7D"/>
            <stop offset="1" stop-color="#013673"/>
        </linearGradient>
        <linearGradient id="paint20_linear" x1="16.8408" y1="2.541" x2="16.8408" y2="12.3987" gradientUnits="userSpaceOnUse">
            <stop stop-color="#FFF8F5"/>
            <stop offset="0.278" stop-color="#FFF2EF"/>
            <stop offset="0.427" stop-color="#FFF8F5"/>
            <stop offset="0.508" stop-color="#FBEEEC"/>
            <stop offset="0.63" stop-color="#F0D7D5"/>
            <stop offset="1" stop-color="#B59997"/>
        </linearGradient>
        <linearGradient id="paint21_linear" x1="18.4625" y1="1.48925" x2="18.4625" y2="11.2712" gradientUnits="userSpaceOnUse">
            <stop stop-color="#FF6C47"/>
            <stop offset="0.2" stop-color="#FF6744"/>
            <stop offset="0.445" stop-color="#FE583C"/>
            <stop offset="0.657" stop-color="#FE4532"/>
            <stop offset="1" stop-color="#D43829"/>
        </linearGradient>
        <linearGradient id="paint22_linear" x1="15.3154" y1="1.75" x2="15.3154" y2="11.6667" gradientUnits="userSpaceOnUse">
            <stop stop-color="#4686CF"/>
            <stop offset="0.77" stop-color="#0353AE"/>
            <stop offset="1" stop-color="#013673"/>
        </linearGradient>
        <linearGradient id="paint23_linear" x1="12.4541" y1="10.5" x2="12.4541" y2="12.8333" gradientUnits="userSpaceOnUse">
            <stop stop-color="#4686CF"/>
            <stop offset="0.77" stop-color="#0353AE"/>
            <stop offset="1" stop-color="#013673"/>
        </linearGradient>
        <linearGradient id="paint24_linear" x1="13.9709" y1="10.6861" x2="13.9709" y2="13.0054" gradientUnits="userSpaceOnUse">
            <stop stop-color="#FFF8F5"/>
            <stop offset="0.274" stop-color="#FBEEEC"/>
            <stop offset="0.689" stop-color="#F0D7D5"/>
            <stop offset="1" stop-color="#B59997"/>
        </linearGradient>
        <linearGradient id="paint25_linear" x1="15.5458" y1="10.4387" x2="15.5458" y2="12.74" gradientUnits="userSpaceOnUse">
            <stop stop-color="#FF6C47"/>
            <stop offset="0.2" stop-color="#FF6744"/>
            <stop offset="0.445" stop-color="#FE583C"/>
            <stop offset="0.657" stop-color="#FE4532"/>
            <stop offset="1" stop-color="#D43829"/>
        </linearGradient>
        <linearGradient id="paint26_linear" x1="17.1179" y1="3.38566" x2="17.1179" y2="7.82774" gradientUnits="userSpaceOnUse">
            <stop stop-color="#FFF8F5" stop-opacity="0"/>
            <stop offset="0.54" stop-color="#FFF8F5" stop-opacity="0.6"/>
            <stop offset="1" stop-color="#FFF8F5" stop-opacity="0"/>
        </linearGradient>
        <linearGradient id="paint27_linear" x1="4.52193" y1="6.98142" x2="21.2058" y2="28.577" gradientUnits="userSpaceOnUse">
            <stop stop-color="#FFE16E"/>
            <stop offset="0.352" stop-color="#FFD226"/>
            <stop offset="0.49" stop-color="#F5BA19"/>
            <stop offset="0.581" stop-color="#F0AF13"/>
            <stop offset="1" stop-color="#F08D13"/>
        </linearGradient>
        <radialGradient id="paint28_radial" cx="0" cy="0" r="1" gradientUnits="userSpaceOnUse" gradientTransform="translate(14.7065 20.6226) scale(8.90167)">
            <stop stop-color="#FFF3C2" stop-opacity="0"/>
            <stop offset="0.725" stop-color="#FFF3C2" stop-opacity="0"/>
            <stop offset="0.83" stop-color="#FFF3C2"/>
            <stop offset="0.962" stop-color="#FFF3C2" stop-opacity="0"/>
        </radialGradient>
        <radialGradient id="paint29_radial" cx="0" cy="0" r="1" gradientUnits="userSpaceOnUse" gradientTransform="translate(14.2356 18.76) scale(7.98175)">
            <stop stop-color="#FFE477" stop-opacity="0"/>
            <stop offset="0.725" stop-color="#FFE477" stop-opacity="0"/>
            <stop offset="0.83" stop-color="#FFEEAB"/>
            <stop offset="0.962" stop-color="#FFE477" stop-opacity="0"/>
        </radialGradient>
        <radialGradient id="paint30_radial" cx="0" cy="0" r="1" gradientUnits="userSpaceOnUse" gradientTransform="translate(14.2356 18.76) scale(7.98175)">
            <stop stop-color="#FFF3C2" stop-opacity="0"/>
            <stop offset="0.725" stop-color="#FFF3C2" stop-opacity="0"/>
            <stop offset="0.83" stop-color="#FFF3C2"/>
            <stop offset="0.962" stop-color="#FFF3C2" stop-opacity="0"/>
        </radialGradient>
    </defs>
</svg>
